<svg viewBox="0 0 1024 1024" version="1.1" xmlns="http://www.w3.org/2000/svg">
  <path
    d="M928 369H682L539 684.5l-123.1-55 118-260.5H96c-45.3 0-82 36.7-82 82v396c0 45.3 36.7 82 82 82h832c45.3 0 82-36.7 82-82V451c0-45.3-36.7-82-82-82zM324.5 865h-72.3L113.5 649.5 252.1 434h72.3L185.9 649.5 324.5 865z m61.5 5l19.2-208.7 123.2 55L386 870z m385.9-5h-72.3l138.6-215.5L699.5 434h72.3l138.6 215.5L771.9 865zM784.8 132.8c14-23.8 1.6-56.1-26.3-68.5L730 51.5c-23.8-14-56-1.6-68.4 26.2l-37.1 83.6 123.1 55 37.2-83.5z"
    fill="#0686D8"></path>
  <path d="M736.8 248.3l-123.3-55L533.9 369H682z" fill="#0686D8"></path>
</svg>
